
        <svg xmlns="http://www.w3.org/2000/svg" xmlns:xlink="http://www.w3.org/1999/xlink" version="1.1" width="3171.4285714285716" height="1914.9660104839297" viewBox="0 0 3171.4285714285716 1914.9660104839297">
			
			<g transform="scale(8.57142857142857) translate(10, 10)">
				<defs id="SvgjsDefs1036"/><g id="SvgjsG1037" featureKey="rDwwlG-0" transform="matrix(3.163754463195801,0,0,3.163754463195801,16.85176245358697,-90.48337475793505)" fill="#fff"><g xmlns="http://www.w3.org/2000/svg"><path d="M63.9,36.4c-0.5-0.2-1.1,0.1-1.3,0.6c-1.3,3.6-4.4,6.2-8.2,6.7c-0.5,0.1-0.9,0.6-0.9,1.1c0.1,0.5,0.5,0.9,1,0.9   c0,0,0.1,0,0.1,0c4.5-0.6,8.3-3.7,9.8-8C64.7,37.2,64.5,36.6,63.9,36.4z"/><path d="M37.3,47c-0.2-0.5-0.8-0.8-1.3-0.6c-0.5,0.2-0.8,0.8-0.6,1.3c1.5,4.3,5.3,7.4,9.8,8c0,0,0.1,0,0.1,0c0.5,0,0.9-0.4,1-0.9   c0.1-0.5-0.3-1.1-0.9-1.1C41.7,53.2,38.6,50.6,37.3,47z"/><path d="M71.5,65.5c-0.8-0.8-2.1-0.8-2.8,0c-2,2-7.4,2.9-16.7-0.2c0-0.1,0-0.2,0-0.3v-5.9v-1.8v-6.2c10.2-0.1,18.4-8.4,18.4-18.7   v-1.8c0-1.1-0.9-2-2-2h-1.8c-9.8,0-17.8,7.6-18.6,17.2c-3.4-4.4-8.7-7.2-14.7-7.2h-1.8c-1.1,0-2,0.9-2,2v1.8   c0,10.2,8.3,18.5,18.5,18.7v3c-10.2-2.5-18.5,0.8-18.9,0.9c-1,0.4-1.5,1.6-1.1,2.6c0.4,1,1.6,1.5,2.6,1.1c0.1,0,9-3.5,19.1,0   c5.4,1.9,9.5,2.6,12.8,2.6c5,0,7.7-1.7,9.1-3C72.3,67.5,72.3,66.3,71.5,65.5z M33.5,42.7c7.9,0.1,14.4,6.5,14.5,14.5   C40.1,57,33.6,50.6,33.5,42.7z M66.4,32.7c-0.1,7.9-6.5,14.4-14.5,14.5C52.1,39.2,58.5,32.8,66.4,32.7z"/></g></g><g id="SvgjsG1038" featureKey="4AZ1rv-0" transform="matrix(3.3068783283233643,0,0,3.3068783283233643,-4.497353517638291,136.34920456855426)" fill="#fff"><path d="M1.36 20 l0 -13.22 l3.36 0 l0 10.34 l5.18 0 l0 2.88 l-8.54 0 z M10.96 7.4 c0 -0.96 0.8 -1.74 1.76 -1.74 c0.98 0 1.76 0.78 1.76 1.74 s-0.78 1.76 -1.76 1.76 c-0.96 0 -1.76 -0.8 -1.76 -1.76 z M11.16 20 l0 -9.34 l3.12 0 l0 9.34 l-3.12 0 z M15.72 13 l0 -2.34 l1.18 0 l0.18 -2.56 l2.9 0 l0 2.56 l2.56 0 l0 2.34 l-2.56 0 l0 3.96 c0 0.46 0.14 0.74 0.54 0.74 c0.5 0 0.6 -0.56 0.64 -1.12 l2.28 0.8 c-0.4 1.58 -1.02 2.82 -3.3 2.82 c-2.48 0 -3.28 -1.58 -3.28 -3.24 l0 -3.96 l-1.14 0 z M23.82 13 l0 -2.34 l1.18 0 l0.18 -2.56 l2.9 0 l0 2.56 l2.56 0 l0 2.34 l-2.56 0 l0 3.96 c0 0.46 0.14 0.74 0.54 0.74 c0.5 0 0.6 -0.56 0.64 -1.12 l2.28 0.8 c-0.4 1.58 -1.02 2.82 -3.3 2.82 c-2.48 0 -3.28 -1.58 -3.28 -3.24 l0 -3.96 l-1.14 0 z M32.56 20 l0 -14.36 l3.12 0 l0 14.36 l-3.12 0 z M46.50000000000001 16.04 l-5.92 0 c0.08 1.34 0.46 1.92 1.76 1.92 c0.8 0 1.28 -0.22 1.42 -0.94 l2.74 0.48 c-0.52 1.74 -1.76 2.78 -4.26 2.78 c-3.12 0 -4.92 -1.62 -4.92 -4.84 c0 -2.6 1.16 -5.06 4.78 -5.06 c2.94 0 4.4 1.62 4.4 4.64 l0 1.02 z M41.980000000000004 12.6 c-0.76 0 -1.2 0.36 -1.36 1.54 l2.6 0 l0 -0.02 c0 -1.1 -0.42 -1.52 -1.24 -1.52 z M52.42000000000001 20 l0 -13.22 l8.64 0 l0 2.86 l-5.28 0 l0 2.28 l4.44 0 l0 2.86 l-4.44 0 l0 5.22 l-3.36 0 z M71.16000000000001 20.1 c-2.14 0.34 -2.98 -0.52 -3.24 -1.22 c-0.48 0.68 -1.2 1.4 -2.66 1.4 c-1.7 0 -3.16 -0.96 -3.16 -2.74 c0 -2.16 2.14 -3.14 5.4 -3.16 l0 -0.28 c0 -1.06 -0.26 -1.44 -1.02 -1.44 c-0.72 0 -1.06 0.34 -0.96 1.24 l-3.1 -0.58 c-0.2 -1.62 1.24 -2.94 4.28 -2.94 c2.86 0 3.92 1.18 3.92 3.76 l0 2.2 c0 1.02 0.04 1.54 1.1 1.3 z M67.50000000000001 16.88 l0 -0.74 c-1.22 0.02 -2.26 0.24 -2.26 1.16 c0 0.52 0.34 0.76 0.86 0.76 c0.6 0 1.32 -0.32 1.4 -1.18 z M73.00000000000001 20 l0 -9.34 l2.9 0 l0 1.6 c0.44 -1 1.22 -1.88 2.48 -1.88 c1.48 0 1.94 0.98 1.94 0.98 l-1.86 2.68 s-0.24 -0.66 -0.92 -0.66 c-0.72 0 -1.1 0.94 -1.42 1.92 l0 4.7 l-3.12 0 z M92.94 20 l0 -5.34 c0 -1.1 -0.26 -1.64 -0.9 -1.64 c-1.08 0 -1.64 1.56 -1.82 2.26 l0 4.72 l-3.12 0 l0 -5.34 c0 -1.08 -0.26 -1.64 -0.9 -1.64 c-1.12 0 -1.68 1.7 -1.84 2.32 l0 4.66 l-3.12 0 l0 -9.34 l2.9 0 l0 1.48 c0.26 -0.56 1.04 -1.76 3.06 -1.76 c1.2 0 2.34 0.46 2.74 1.82 c0.22 -0.5 0.98 -1.82 3.14 -1.82 c1.38 0 2.98 0.56 2.98 3.48 l0 6.14 l-3.12 0 z M106.64 20.1 c-2.14 0.34 -2.98 -0.52 -3.24 -1.22 c-0.48 0.68 -1.2 1.4 -2.66 1.4 c-1.7 0 -3.16 -0.96 -3.16 -2.74 c0 -2.16 2.14 -3.14 5.4 -3.16 l0 -0.28 c0 -1.06 -0.26 -1.44 -1.02 -1.44 c-0.72 0 -1.06 0.34 -0.96 1.24 l-3.1 -0.58 c-0.2 -1.62 1.24 -2.94 4.28 -2.94 c2.86 0 3.92 1.18 3.92 3.76 l0 2.2 c0 1.02 0.04 1.54 1.1 1.3 z M102.98 16.88 l0 -0.74 c-1.22 0.02 -2.26 0.24 -2.26 1.16 c0 0.52 0.34 0.76 0.86 0.76 c0.6 0 1.32 -0.32 1.4 -1.18 z"/></g>
			</g>
		</svg>
	